<svg id="Capa_1" enable-background="new 0 0 512.005 512.005" height="512" viewBox="0 0 512.005 512.005" width="512" xmlns="http://www.w3.org/2000/svg"><g><path d="m170.691 118.194c-2.028-15.31-37.036-57.772-88.717-65.978-7.276-1.155-13.211 5.821-10.871 12.806 1.424 4.251 2.863 7.547 4.739 11.041 1.112 2.072-.827 4.477-3.078 3.796-12.553-3.8-32.656-6.808-54.219-4.656-8.713.87-13.699 10.282-9.573 18.004 4.958 9.278 11.826 18.802 17.047 22.59 1.908 8.307 65.753 73.438 135.076 73.327z" fill="#565e75"/><path d="m68.439 155.728c24.848 17.265 58.069 33.451 92.656 33.396l9.596-70.93c-.944-7.128-9.044-20.142-22.642-32.844-31.322 16.925-58.137 41.112-79.61 70.378z" fill="#404656"/><path d="m161.095 189.124c-32.95-68.428-94.706-84.228-135.076-73.327-5.606 9.377-8.82 19.919-8.82 31.071 0 38.992 35.768 70.601 79.89 70.601 26.19-.001 49.436-11.138 64.006-28.345z" fill="#f8debb"/><path d="m341.311 118.194c2.027-15.31 37.036-57.772 88.717-65.978 7.276-1.155 13.211 5.821 10.871 12.806-1.423 4.251-2.863 7.547-4.739 11.041-1.112 2.072.827 4.477 3.078 3.796 12.553-3.8 32.656-6.808 54.219-4.656 8.712.869 13.699 10.281 9.572 18.003-4.958 9.278-11.827 18.802-17.047 22.59-1.908 8.307-65.753 73.438-135.076 73.327z" fill="#565e75"/><path d="m363.954 85.349c-13.597 12.702-21.698 25.717-22.642 32.845l9.596 70.93c34.587.055 67.808-16.13 92.656-33.396-21.472-29.264-48.287-53.452-79.61-70.379z" fill="#404656"/><path d="m350.907 189.124c32.95-68.428 94.706-84.228 135.076-73.327 5.606 9.377 8.82 19.919 8.82 31.071 0 38.992-35.768 70.601-79.89 70.601-26.19-.001-49.436-11.138-64.006-28.345z" fill="#f8debb"/><path d="m469.401 198.477c-14.089-28.615-32.375-54.232-54.331-75.489-24.391 11.21-47.82 32.197-64.162 66.135 14.57 17.207 37.816 28.344 64.006 28.344 21.065.001 40.213-7.216 54.487-18.99z" fill="#f6c5a3"/><path d="m42.601 198.477c14.274 11.774 33.423 18.992 54.488 18.992 26.19 0 49.436-11.137 64.006-28.344-16.342-33.939-39.771-54.925-64.162-66.135-21.956 21.254-40.242 46.871-54.332 75.487z" fill="#f6c5a3"/><path d="m74.821 201.469c-34.099 201.572 73.467 181.714 181.18 191.805 107.714-10.091 215.28 9.767 181.18-191.805-23.996-43.837-59.382-78.698-103.822-97.533-25.083 0-49.288 22.864-77.358 22.864s-52.983-22.864-77.358-22.864c-44.44 18.835-79.826 53.695-103.822 97.533z" fill="#f9efcd"/><g fill="#565e75"><path d="m256.001 442.186c118.063 0 229.61-24.198 213.772-139.873-4.974-36.326-16.093-70.704-32.592-100.844-8.317 23.19-4.225 62.542-11.83 101.915-9.164 47.44-94.707 33.693-99.937 63.907h-138.826c-5.229-30.213-90.773-16.466-99.937-63.907-7.605-39.373-3.513-78.724-11.83-101.915-16.499 30.14-27.618 64.518-32.592 100.844-15.838 115.675 95.709 139.873 213.772 139.873z"/><path d="m233.881 270.683c0-21.671 9.051-71.416-42.236-90.134s-62.327 29.997-66.119 47.334-10.402 55.402 21.563 60.819c31.965 5.418 55.911 20.447 69.997 12.32 14.087-8.126 16.795-30.339 16.795-30.339z"/><path d="m278.121 270.683c0-21.671-9.051-71.416 42.236-90.134s62.326 29.997 66.119 47.334c3.792 17.337 10.402 55.402-21.563 60.819-31.965 5.418-55.911 20.447-69.997 12.32-14.086-8.126-16.795-30.339-16.795-30.339z"/></g><path d="m256.001 459.919c74.47 0 94.066-24.226 87.672-66.082-6.395-41.856-44.713-138.175-87.672-138.175-42.958 0-81.277 96.32-87.671 138.175-6.395 41.856 13.201 66.082 87.671 66.082z" fill="#f8debb"/><g><g fill="#eda1ab"><ellipse cx="175.973" cy="254.487" rx="23.515" ry="29.529" transform="matrix(.002 -1 1 .002 -78.898 429.902)"/><ellipse cx="336.029" cy="254.837" rx="23.515" ry="29.529" transform="matrix(.002 -1 1 .002 80.456 590.307)"/></g><path d="m274.529 332.218c0-6.741-8.295-9.23-18.528-9.23-10.232 0-18.528 2.489-18.528 9.23s8.295 15.183 18.528 15.183 18.528-8.441 18.528-15.183z" fill="#565e75"/></g><path d="m256.001 88.541c-28.07 0-53.966 5.482-77.358 15.396 20.833 30.8 54.878 61.124 77.358 61.124s56.525-30.324 77.358-61.124c-23.392-9.914-49.288-15.396-77.358-15.396z" fill="#565e75"/><path d="m285.008 381.086c-4.142 0-7.5 3.357-7.5 7.5 0 3.835-3.12 6.955-6.956 6.955-3.835 0-6.956-3.12-6.956-6.955v-42.785c6.441-2.764 10.932-8.627 10.932-13.583 0-6.741-8.295-9.23-18.528-9.23s-18.528 2.489-18.528 9.23c0 5.006 4.579 10.942 11.123 13.671v42.697c0 3.835-3.12 6.955-6.956 6.955-3.835 0-6.956-3.12-6.956-6.955 0-4.143-3.358-7.5-7.5-7.5s-7.5 3.357-7.5 7.5c0 12.106 9.849 21.955 21.956 21.955 5.531 0 10.591-2.056 14.456-5.443 3.865 3.388 8.925 5.443 14.456 5.443 12.106 0 21.956-9.849 21.956-21.955.001-4.143-3.357-7.5-7.499-7.5zm33.355-136.615c4.142 0 7.5-3.357 7.5-7.5v-12c0-4.143-3.358-7.5-7.5-7.5s-7.5 3.357-7.5 7.5v12c0 4.143 3.358 7.5 7.5 7.5zm175.84-176.73c-15.545-1.552-32.488-.641-47.16 2.416.328-.886.649-1.8.969-2.753 4.128-12.324-6.322-24.634-19.159-22.595-42.125 6.687-73.323 34.318-87.025 54.626-53.388-24.551-118.183-24.589-171.653 0-13.702-20.308-44.9-47.939-87.025-54.626-12.869-2.037-23.28 10.293-19.159 22.594.32.958.643 1.875.972 2.765-4.234-.88-8.711-1.598-13.289-2.125-4.117-.472-7.835 2.479-8.308 6.594-.474 4.114 2.478 7.835 6.593 8.309 9.483 1.091 16.454 2.828 20.631 4.093 8.642 2.609 16.128-6.57 11.86-14.521-1.73-3.224-2.997-6.177-4.235-9.876-.551-1.643.852-3.288 2.583-3.017 36.141 5.738 63.617 29.433 75.874 46.66-11.851 6.584-23.133 14.429-33.768 23.495-32.874-24.537-69.459-27.81-94.878-22.183-3.773-3.853-8.617-10.769-12.439-17.923-1.484-2.775.036-6.01 2.762-6.822 3.97-1.183 6.229-5.36 5.045-9.329-1.183-3.971-5.36-6.23-9.33-5.046-11.822 3.521-17.659 17.124-11.706 28.265 3.604 6.744 8.866 14.89 14.287 20.628-18.591 37.891 1.548 81.928 42.109 99.674-11.698 25.948-19.873 54.434-23.955 84.251-4.823 35.228 1.534 64.675 18.896 87.521 22.18 29.186 61.229 47.415 119.294 55.704 14.759 15.609 41.243 22.899 83.013 22.899 41.774 0 68.259-7.291 83.017-22.902 32.076-4.589 58.889-12.434 79.699-23.351 3.668-1.925 5.082-6.458 3.157-10.126-1.924-3.668-6.456-5.081-10.126-3.157-16.623 8.721-37.629 15.355-62.549 19.805 7.223-20.918.293-47.391-6.502-68.58 25.079-11.736 81.882-12.179 90.018-54.3 5.657-29.288 5.001-58.293 7.407-80.389 10.815 24.309 18.396 50.978 22.221 78.913 4.946 36.124-2.626 63.823-23.148 84.678-2.905 2.953-2.867 7.701.085 10.607s7.702 2.866 10.606-.085c23.667-24.052 32.858-56.766 27.318-97.234-4.083-29.817-12.257-58.303-23.955-84.251 29.648-12.971 49.054-40.281 49.054-70.177 0-10.215-2.339-20.111-6.946-29.499 5.421-5.738 10.683-13.881 14.288-20.626 6.634-12.42-1.418-27.604-15.443-29.004zm-172.53 39.65c-21.209 28.277-49.449 50.169-65.672 50.169s-44.465-21.892-65.674-50.169c41.616-15.15 89.704-15.16 131.346 0zm-290.712 14.906c21.409-4.851 52.295-2.283 80.65 17.808-18.916 18.529-34.211 39.993-46.324 63.427-33.5-14.356-50.71-50.373-34.326-81.235zm131.843 305.394c-95.33-17.061-121.453-63.676-113.145-124.36 3.825-27.934 11.405-54.602 22.22-78.911 2.419 22.234 1.751 51.098 7.408 80.386 8.137 42.124 64.952 42.563 90.03 54.306-6.782 21.166-13.757 47.604-6.513 68.579zm166.381 5.343c-11.203 13.044-35.141 19.385-73.184 19.385-38.042 0-61.981-6.341-73.184-19.385-7.465-8.692-9.713-20.788-7.074-38.064 2.858-18.71 13.252-52.466 29.317-82.366 17.13-31.883 35.221-49.441 50.94-49.441s33.811 17.559 50.94 49.441c16.065 29.9 26.458 63.656 29.317 82.366 2.641 17.276.394 29.372-7.072 38.064zm-131.198-138.425c-12.775-2.921-29.421-9.873-49.645-13.301-6.399-1.085-10.962-3.764-13.95-8.19-8.372-12.401-3.229-35.907-1.539-43.632 2.191-10.016 7.322-33.473 23.141-42.171 8.555-4.702 19.684-4.608 33.08.28 39.079 14.262 38.635 48.578 37.654 72.218-10.576 8.432-20.244 20.777-28.741 34.796zm124.941-107.014c13.396-4.891 24.526-4.983 33.08-.28 15.819 8.698 20.95 32.155 23.141 42.171 1.69 7.725 6.832 31.23-1.54 43.632-2.988 4.427-7.551 7.105-13.95 8.19-20.163 3.418-37.046 10.433-49.713 13.317-10.098-16.677-19.79-27.663-28.669-34.735-.983-23.642-1.471-58.017 37.651-72.295zm95.059 114.367c-5.897 30.529-53.366 31.133-80.211 42.915-4.462-12.036-9.901-24.638-16.206-36.698 12.872-3.445 27.539-9.19 44.596-12.081 10.512-1.782 18.545-6.689 23.876-14.587 10.725-15.888 7.282-39.13 3.76-55.23-2.626-12.008-8.778-40.129-30.567-52.109-12.516-6.883-27.808-7.107-45.45-.668-43.385 15.833-47.992 51.947-47.767 77.39-9.058-3.479-18.253-3.78-28.036-.055.219-25.439-4.411-61.512-47.766-77.335-17.643-6.438-32.935-6.215-45.45.668-21.789 11.98-27.94 40.102-30.567 52.109-3.522 16.1-6.964 39.342 3.76 55.23 5.331 7.897 13.364 12.805 23.876 14.587 17.044 2.889 31.631 8.606 44.545 12.061-6.252 11.996-11.682 24.628-16.151 36.72-26.835-11.781-74.318-12.392-80.215-42.918-7.219-37.37-3.616-74.85-11.038-99.646 21.613-38.371 52.843-70.425 93.062-89.037 16.847 23.269 51.607 59.282 79.963 59.282s63.114-36.012 79.963-59.283c40.223 18.614 71.435 50.64 93.062 89.037-7.38 24.653-3.867 62.518-11.039 99.648zm28.728-98.43c-12.089-23.388-27.367-44.855-46.324-63.427 28.356-20.089 59.24-22.655 80.65-17.808 4.157 7.83 6.261 16.081 6.261 24.57.001 24.064-16.07 46.16-40.587 56.665zm49.7-113.86c-3.823 7.154-8.666 14.07-12.44 17.924-25.418-5.624-62.004-2.353-94.878 22.183-10.635-9.065-21.916-16.911-33.768-23.495 12.257-17.227 39.733-40.922 75.875-46.659 1.733-.272 3.133 1.375 2.583 3.018-1.238 3.698-2.505 6.651-4.235 9.875-4.268 7.953 3.221 17.131 11.86 14.521 5.532-1.676 25.58-6.937 51.301-4.371 3.393.337 5.314 3.989 3.702 7.004zm-302.949 127.799c-4.142 0-7.5 3.357-7.5 7.5v12c0 4.143 3.358 7.5 7.5 7.5s7.5-3.357 7.5-7.5v-12c0-4.142-3.357-7.5-7.5-7.5z"/></g></svg>